<svg xmlns="http://www.w3.org/2000/svg" viewBox="0 0 64 64">
  <defs>
    <linearGradient id="g1" x1="0" y1="0" x2="1" y2="1">
      <stop offset="0%" stop-color="#1E3A8A"/>
      <stop offset="100%" stop-color="#3B82F6"/>
    </linearGradient>
  </defs>

  <rect x="2" y="2" width="60" height="60" rx="14" fill="#EFF6FF" stroke="#93C5FD" stroke-width="2"/>

  <!-- PubMed-inspired open-book block -->
  <path d="M14 19h17c4 0 7 3 7 7v20c-2-2-4.4-3-7-3H14z" fill="url(#g1)"/>
  <path d="M50 19H33c-4 0-7 3-7 7v20c2-2 4.4-3 7-3h17z" fill="#0D9488"/>
  <rect x="31" y="19" width="2" height="27" fill="#D1FAE5"/>

  <!-- Chatbot speech bubble indicator -->
  <g transform="translate(36 35)">
    <rect x="0" y="0" width="20" height="14" rx="6" fill="#7C3AED"/>
    <path d="M6 14l3 5 3-5z" fill="#7C3AED"/>
    <circle cx="6.5" cy="7" r="1.3" fill="#fff"/>
    <circle cx="10" cy="7" r="1.3" fill="#fff"/>
    <circle cx="13.5" cy="7" r="1.3" fill="#fff"/>
  </g>
</svg>
